<svg viewBox="0 0 236.8 136.82" xmlns="http://www.w3.org/2000/svg"><path d="m27.3 49.6 3.4-5c1-1.5 1.6-1.9 2.2-2a1.82 1.82 0 0 1 1.2.3c.7.5.9 1.1.5 2.2.8-.8 1.5-1 2.2-.4a1.83 1.83 0 0 1 .7 1c.1.6 0 1.4-1.1 3l-3.3 4.8zm2.2-.7 1 .7 2.5-3.6a2.51 2.51 0 0 0 .5-1.1c0-.1-.1-.2-.2-.3s-.2-.1-.4-.1-.6.4-.9.9zm5.8-1.3c.4-.5.6-.9.5-1.2s-.1-.3-.3-.4a.79.79 0 0 0 -.4-.1 2.63 2.63 0 0 0 -1 .9l-2.4 3.6 1.1.8z" fill="#bfd4de"/><path d="m36.6 36.9 1.6-1.8 8.5 1-1.4 1.7-1.6-.2-4 4.4.4 1.6-1.4 1.6zm2.7 3.4 2.6-3-3.6-.5z" fill="#bfd4de"/><path d="m52.2 27.1a2.51 2.51 0 0 1 -1 1.9l4-.6-2.1 1.9-3.9.5-1.8 1.6 1.5 1.7-1.4 1.3-4.7-5.2 4.3-3.9c1.5-1.3 2.2-1.6 2.9-1.6a2.26 2.26 0 0 1 1.5.8 2.16 2.16 0 0 1 .7 1.6zm-4 .4-2.9 2.6 1.1 1.2 2.9-2.6c.7-.6 1-1 1-1.3a.72.72 0 0 0 -.2-.5c-.2-.2-.3-.3-.5-.3s-.7.2-1.4.9z" fill="#bfd4de"/><path d="m52 22.1 4.2-2.9c2-1.4 3-1.6 4-1.4a3.52 3.52 0 0 1 2 1.4 3.56 3.56 0 0 1 .7 2.4c-.2 1-.7 1.9-2.7 3.3l-4.2 2.9zm4.7 3.4 2.6-1.8c1.3-.9 1.6-1.4 1.7-2a1.46 1.46 0 0 0 -.4-1.3 1.69 1.69 0 0 0 -1.1-.8c-.6-.1-1.2.1-2.5 1l-2.6 1.8z" fill="#bfd4de"/><path d="m62.9 15.6c.2-.8 1-1.6 3-2.6a13.45 13.45 0 0 1 4-1.5l.8 1.4a12.38 12.38 0 0 0 -4.1 1.4c-1.4.8-2 1.2-2.1 1.5v.3c.1.1.1.2.3.2s1-.2 2.5-1c2.3-1.2 3.4-1.5 4.1-1.3a2.13 2.13 0 0 1 1 .9 2 2 0 0 1 .3 1.5c-.2.7-.9 1.6-3.2 2.8a13.41 13.41 0 0 1 -4.6 1.6l-.8-1.4a13.59 13.59 0 0 0 4.6-1.5c1.3-.7 2.1-1.2 2.2-1.6a.37.37 0 0 0 -.1-.3c-.1-.1-.1-.2-.2-.2s-.5 0-2.5 1-3.2 1.4-4 1.2a1.35 1.35 0 0 1 -.9-.9 2 2 0 0 1 -.3-1.5z" fill="#bfd4de"/><path d="m81.7 7.6-3.9 1.6 2.1 5-1.8.8-2.1-5-3.9 1.6-.6-1.5 9.6-4z" fill="#bfd4de"/><path d="m83.7 6.4c.4-.9 1.4-1.8 4.1-2.5s4-.5 4.8 0a2.9 2.9 0 0 1 1.6 2.1 3.31 3.31 0 0 1 -.2 2.6c-.4.8-1.4 1.7-4.2 2.5s-4 .5-4.8 0a3.16 3.16 0 0 1 -1.5-2.2 2.76 2.76 0 0 1 .2-2.5zm7.7-1.2c-.5-.3-1.4-.4-3.2.1s-2.5 1.1-2.8 1.6a2 2 0 0 0 -.1 1.6 1.93 1.93 0 0 0 .9 1.3c.5.3 1.4.4 3.2-.1s2.5-1.1 2.8-1.6a2 2 0 0 0 .1-1.6 1.93 1.93 0 0 0 -.9-1.3z" fill="#bfd4de"/><path d="m109.2 7.4-2.5.3-3.1-5-1.8 5.6-2.6.3-4.5-6.5 2.2-.3 3.5 5.3 1.9-5.9 2.2-.3 3.3 5.3 2.1-5.9 2.1-.3z" fill="#bfd4de"/><path d="m122.4 5.8.2-5.4 1.8.1-.2 7-2.8-.1-5.5-5.7-.2 5.5-1.8-.1.2-7 2.9.1z" fill="#bfd4de"/><path d="m134.4 4.5 4.3-1.9 2.7.5-5.6 2.4 4.3 4.4-2.8-.5-3.4-3.4-1.1-.2-.5 2.7-1.9-.4 1.3-6.9 1.9.4-.5 2.7z" fill="#bfd4de"/><path d="m150.8 8.9-.4 1.4-6.6-2.1-.4 1.1 6.8 2.1-.5 1.5-8.6-2.7 2.1-6.7 8.6 2.7-.5 1.5-6.8-2.1-.3 1.1z" fill="#bfd4de"/><path d="m159.9 15.8 2.2-4.9 1.7.8-2.9 6.4-2.5-1.1-2.9-7.3-2.3 5-1.7-.8 2.9-6.4 2.6 1.2z" fill="#bfd4de"/><path d="m173.9 19.4-3.6-2.2-2.8 4.6-1.6-1 2.8-4.6-3.6-2.2.8-1.4 8.9 5.4z" fill="#bfd4de"/><path d="m173.4 24.5a2.66 2.66 0 0 1 .7-2.1l2.4-3.1 1.5 1.2-2.2 2.9a2 2 0 0 0 -.5 1.3c0 .6.5 1.3 1.7 2.2s2 1.2 2.5 1.1a2.11 2.11 0 0 0 1.2-.8l2.2-2.9 1.5 1.2-2.4 3.1a2.7 2.7 0 0 1 -1.9 1.2c-1 .1-2.2-.2-4.1-1.7s-2.5-2.6-2.6-3.6z" fill="#bfd4de"/><path d="m190 30.4a10 10 0 0 1 2.5 3.5l-1.2 1.2a9.82 9.82 0 0 0 -2.4-3.6 4 4 0 0 0 -2.5-1.4 1.89 1.89 0 0 0 -1.4.7 2.06 2.06 0 0 0 -.7 1.4 3.83 3.83 0 0 0 1.4 2.4 10.67 10.67 0 0 0 3.6 2.4l-1.2 1.2a10 10 0 0 1 -3.5-2.5c-1.7-1.7-2.2-3-2.2-3.9a3.54 3.54 0 0 1 1.1-2.4 3.66 3.66 0 0 1 2.4-1.2c1 0 2.4.5 4.1 2.2z" fill="#bfd4de"/><path d="m194.5 39.6 4.5 1.3 1.7 2.1-5.8-1.7.5 6.2-1.8-2.2-.4-4.8-.7-.9-2.1 1.7-1.2-1.5 5.4-4.4 1.2 1.5-2.1 1.7z" fill="#bfd4de"/><path d="m205.7 50.7 1.3 2-6-1.6-2.3 1.5-1-1.6 2.3-1.5 1.1-6.1 1.4 2.1-.7 4.1z" fill="#bfd4de"/><path d="m19.5 87.2c3 0 4.3 2.3 4.3 6.8 2-.1 7.2-.1 9.3 0 .1-3.2.7-11.1 1-13.3a48.64 48.64 0 0 1 -5.4 0c-.2 2.4-.8 2.4-2.5 1.4-2.3-1.5-5-2.4-9.5-2.4-10 0-16.7 6-16.7 18.1 0 13.6 6.5 18 17.5 18 12.4 0 16.7-3.7 16.5-14.2-2.1.1-8.1.1-10.2 0 .2 5-1.8 6.9-4.4 6.9-2.8 0-5-1.3-5-10.7 0-9.1 1.8-10.6 5.1-10.6z" fill="#fff"/><path d="m53.8 79.9c-11.4 0-18.6 5.2-18.6 18 0 13.3 6.6 17.8 18.6 17.8 10.5 0 18.6-4.4 18.6-17.9 0-13-6.2-17.9-18.6-17.9zm0 29c-3.6 0-4.3-2.5-4.3-11s.8-11.1 4.3-11.1c3.7 0 4.2 2.6 4.2 11.1s-.7 11-4.2 11z" fill="#fff"/><path d="m108 105.2c.7 3.1.3 4.5-.5 4.5s-1.4-.7-1.8-3.5c-.6-3.9-2.4-7.1-7.4-7.7 6.2-.6 9-4.1 9-8.5 0-6-4.4-9.4-12.3-9.4h-12.4c-3.1 0-10.3-.1-11.1-.1v6.5h1.1c1.8 0 2.3 1 2.5 2.9s.1 13.3 0 15.4-.8 2.9-2.4 2.9h-1.1v6.6s6.4-.1 10-.1 10 .1 10 .1v-6.6h-1c-1.7 0-2.7-.8-2.8-3 0-.7-.1-2.7-.1-4.9 3.2.1 4.6 1.5 4.9 6.9.3 5.7 2.2 8.8 9.3 8.8 8.5 0 10.4-5.3 9-11.2a5.77 5.77 0 0 1 -2.9.4zm-19-9.1h-1.5c0-2.9 0-5.6.1-6.9a1.76 1.76 0 0 1 1.51-2 1.7 1.7 0 0 1 .39 0h.6c2.5 0 3 1.7 3 4.5.1 3.1-1 4.4-4.1 4.4z" fill="#fff"/><path d="m202.5 80.7s-5.2.1-8.1.1-8.1-.1-8.1-.1v6.5h1.9c1.8 0 3.1 1 3.3 3.9.1 2 0 5.6 0 7.6-3.4-5.1-8.9-13.8-11.3-18-3.5.1-10.4.1-15 0h-2.4c-2.1 0-5.3.1-7.4.1-1.9 0-4.7 0-6.8-.1h-3.1c-1.6 0-3.6.1-5.2.1-3 0-8.3-.1-8.3-.1v6.5h.9c2.3 0 2.3 1.8 1.6 4.8-.5 2.3-2.4 8.5-3.3 11.2-.8-2.6-2.7-8.7-3.3-11.3-.8-3.5-.2-4.7 1.7-4.7h.9v-6.5c-.8 0-7.3.1-11.3.1s-11.4-.1-11.4-.1v6.5h1.1c2.7 0 3.8 1.1 4.8 4s5.4 17.8 7 24.1c3.3-.1 10.6-.1 13.9 0 2-7.7 6-20.5 7.3-24.1 1.2-3.2 2.5-3.9 4.6-4 1.6.1 2.2 1.1 2.3 2.9s.1 13.7 0 15.4-.4 2.9-2.4 2.9h-1v6.7s6.3-.1 9.8-.1c2.1 0 5.3.1 7.4.1 1.4 0 2.3.1 2.3.1v-.1c1.8 0 4.2-.1 5.9-.1 3 0 8.3.1 8.3.1v-6.6h-2c-2.3 0-3.2-1.7-3.4-3.9-.1-1.4-.1-6.6 0-9.9 4 6.2 9.9 15.6 12.7 20.3 2.8-.1 8.8-.1 11.6 0-.1-8.2-.1-21.2 0-24s1.5-3.9 3.3-3.9h.9c.2-1.4.2-4.9.3-6.4zm-35.3 23.9c-.1 2.1-1.1 3.8-3.2 3.9-1.7-.1-2.1-1.3-2.3-2.9s-.1-13.5 0-15.4.7-2.8 2.3-2.9c1.9.1 3 1.5 3.2 3.4s.2 11.7 0 13.9z" fill="#fff"/><path d="m219.2 90.8c-5.5-.2-6.7-.5-6.7-2.1 0-1.2 1.3-2.4 6-2.4 4.3 0 8 1.3 9.5 4.4 1.1-.1 3.9 0 5 0-.1-3 0-7.5.1-10.1a36.85 36.85 0 0 1 -4.7 0c-.4 1.8-.4 2.4-2.5 1.3a19.41 19.41 0 0 0 -9.4-2.1c-9.4 0-14.3 5.3-14.3 12.9 0 7.3 4.4 11.5 15.1 12 5.9.3 7.8.7 7.8 2.2s-1.4 2.4-5.5 2.4c-6.2 0-10.9-1.7-12.7-5.7a40.05 40.05 0 0 1 -4.9 0c.1 2.7-.2 8.2-.4 11.4a45.1 45.1 0 0 1 5.2 0c.3-2 1.2-2.5 2.8-1.7a20.69 20.69 0 0 0 10.1 2.2c10.2 0 15.4-4.3 15.4-12.9 0-9.1-7.9-11.5-15.9-11.8z" fill="#fff"/><path d="m206.3 75.8a2.23 2.23 0 0 0 2.2-1.2c-.2 2.5-1.7 4-4.3 4.6l.3.9c3.6-.7 5.6-3.2 5.6-6.4 0-2.3-1.2-3.7-3.2-3.7a2.9 2.9 0 0 0 -3.19 2.56 3.2 3.2 0 0 0 0 .44 2.47 2.47 0 0 0 2.13 2.78 2.43 2.43 0 0 0 .46.02z" fill="#fff"/><path d="m51.7 49.2h4.6v1.1h-3v.5h2.5v1.1h-2.5v.5h3.2v1.1h-4.8z" fill="#f0efdf"/><path d="m60.2 52.2c.1.2.3.3.7.3s.6-.1.6-.3a.22.22 0 0 0 -.2-.2 4.07 4.07 0 0 0 -1.1-.1 2.47 2.47 0 0 1 -1.3-.3 1.08 1.08 0 0 1 -.8-1.1c0-1 .9-1.5 2.6-1.5a3.16 3.16 0 0 1 1.9.4 1.45 1.45 0 0 1 .6 1h-2c-.1-.3-.3-.4-.7-.4s-.5.1-.5.3.1.2 1.4.4a3.63 3.63 0 0 1 1.3.3 1.09 1.09 0 0 1 .7 1.1q0 1.5-2.7 1.5a3.16 3.16 0 0 1 -1.9-.4 1.27 1.27 0 0 1 -.7-1z" fill="#f0efdf"/><path d="m66.4 50.3h-1.5v-1.1h4.6v1.1h-1.6v3.2h-1.5z" fill="#f0efdf"/><path d="m71.1 49.2h2.7c1 0 1.5.1 1.9.5a2.21 2.21 0 0 1 .6 1.7 2.56 2.56 0 0 1 -.5 1.6c-.4.4-.8.5-2 .5h-2.7zm2.3 3.2a2 2 0 0 0 .9-.1c.2-.1.3-.5.3-.9a1.19 1.19 0 0 0 -.3-.9 1.5 1.5 0 0 0 -.9-.2h-.7v2.1z" fill="#f0efdf"/><path d="m151.9 50.7a2.44 2.44 0 0 1 -.7.2v-1a2.29 2.29 0 0 0 1.1-.7h1.2v4.2h-1.6z" fill="#f0efdf"/><path d="m158.5 52.2c.1.3.4.4.8.4a1.42 1.42 0 0 0 .7-.2.59.59 0 0 0 .2-.5 3.15 3.15 0 0 1 -1.1.2 5.07 5.07 0 0 1 -1.5-.2 1.17 1.17 0 0 1 -.9-1.2 1.15 1.15 0 0 1 .6-1.1 3.57 3.57 0 0 1 1.9-.4 4 4 0 0 1 2 .5 1.87 1.87 0 0 1 .8 1.7c0 1.5-.9 2.2-2.6 2.2a3.44 3.44 0 0 1 -2-.5 1.35 1.35 0 0 1 -.5-.9zm0-1.6c0 .3.3.4.8.4s.8-.1.8-.4-.3-.4-.8-.4-.8.1-.8.4z" fill="#f0efdf"/><path d="m163.7 50.4a1.05 1.05 0 0 1 .5-.9 6 6 0 0 1 2-.4 4 4 0 0 1 2 .4.87.87 0 0 1 .5.9.76.76 0 0 1 -.5.8 1 1 0 0 1 .6.9 1.23 1.23 0 0 1 -.5 1 3.6 3.6 0 0 1 -2.1.5 3 3 0 0 1 -2.1-.5 1.23 1.23 0 0 1 -.5-1 .89.89 0 0 1 .6-.9.76.76 0 0 1 -.5-.8zm1.7 1.7c0 .3.2.4.9.4s.8-.1.8-.4-.2-.4-.8-.4-.9.2-.9.4zm.1-1.7c0 .2.2.3.8.3s.8-.1.8-.3-.2-.3-.8-.3-.8.1-.8.3z" fill="#f0efdf"/><path d="m171.1 53.5a2.65 2.65 0 0 1 .7-1.5 10.14 10.14 0 0 1 1.5-1.1 1.72 1.72 0 0 0 .6-.6h-3.3v-1.1h5.2c0 1-.2 1.4-1.3 2.4a3.42 3.42 0 0 0 -1.3 1.9z" fill="#f0efdf"/><path d="m84.4 63.3 4.2-9.6 3.8.8.8-2.1 2.7-.4-.7-2.5 6.2-2.7 1.7 1 3.1-.7 3.1-1.6 2.3 1 3.4-4.5.4-2.1 1.9-.6h2v-2.5l2.3-1.1 3.8 1.1 3.5 3.2 2.8-.1 4.1-1.1 3.5 4.7.5 4.9 4 3.1-6.6 7.5-7.1 2.9h-33.1l-1.8 1.4z" fill="#f0efdf"/><g fill="#bfd4de"><path d="m2.5 128.2h9.1v2.1h-6.1v1h5v2.1h-5v3.1h-3z"/><path d="m18 128.2v4.3c0 1.6.5 2.2 1.7 2.2s1.7-.6 1.7-2.2v-4.3h3v4.8a3.62 3.62 0 0 1 -.9 2.8c-.7.7-2 1-3.9 1s-3.3-.4-4-1.1a3.38 3.38 0 0 1 -.8-2.6v-4.8h3.2z"/><path d="m28.4 128.2h5.9c1.8 0 2.3.1 2.8.5a2.41 2.41 0 0 1 .8 1.9 2.31 2.31 0 0 1 -.5 1.6 2.21 2.21 0 0 1 -1.1.6c1.2.4 1.3.6 1.4 2.8a1.83 1.83 0 0 0 .2 1.1h-3.2a10 10 0 0 1 -.1-1.1c-.1-1.7-.2-1.9-1.5-1.9h-1.7v3h-3zm5.1 3.6a2 2 0 0 0 .9-.1.79.79 0 0 0 .3-.7c0-.6-.3-.8-1.1-.8h-2v1.6z"/><path d="m41.6 128.2h3.5l2.5 3.2a6.74 6.74 0 0 1 1.2 2.1h.1a6.78 6.78 0 0 1 -.4-2.6v-2.7h3v8.3h-3.4l-2.6-3.3a7.37 7.37 0 0 1 -1.1-2h-.1a5.81 5.81 0 0 1 .4 2.3v3h-3v-8.3z"/><path d="m55.5 128.2h3v8.3h-3z"/><path d="m64.9 130.4h-3v-2.1h9.1v2.1h-3.1v6.2h-3z"/><path d="m77.3 128.2v4.3c0 1.6.5 2.2 1.7 2.2s1.7-.6 1.7-2.2v-4.3h3v4.8a3.62 3.62 0 0 1 -.9 2.8c-.7.7-2 1-3.9 1s-3.3-.4-4-1.1a3.38 3.38 0 0 1 -.8-2.6v-4.8h3.2z"/><path d="m87.6 128.2h5.9c1.8 0 2.3.1 2.8.5a2.41 2.41 0 0 1 .8 1.9 2.31 2.31 0 0 1 -.5 1.6 2.21 2.21 0 0 1 -1.1.6c1.2.4 1.3.6 1.4 2.8a1.83 1.83 0 0 0 .2 1.1h-3.2a10 10 0 0 1 -.1-1.1c-.1-1.7-.2-1.9-1.5-1.9h-1.7v3h-3zm5.1 3.6a2 2 0 0 0 .9-.1.79.79 0 0 0 .3-.7c0-.6-.3-.8-1.1-.8h-2v1.6z"/><path d="m100.9 128.2h9v2.1h-6v.9h4.9v2.1h-4.9v1h6.3v2.1h-9.4v-8.2z"/><path d="m130.1 133.3c-.5.4-1 .8-1.7 1.3l1.7 2h-3.4l-.5-.6a7 7 0 0 1 -3.1.7 5.15 5.15 0 0 1 -2.8-.8 2.39 2.39 0 0 1 -.9-2c0-1.4.9-2.3 2.8-2.7a1.76 1.76 0 0 1 -.5-1.3c0-1.3 1.1-2 3.2-2s3.5.7 3.5 2.1c0 1-.6 1.6-2.3 2.1l1 1.1a4.35 4.35 0 0 0 .9-.7 8.91 8.91 0 0 0 .8-.7zm-6.8-.6c-.7.2-1 .5-1 1a1.27 1.27 0 0 0 1.34 1.2h.06a3.59 3.59 0 0 0 1.2-.3zm2.8-2.5a.67.67 0 0 0 -.7-.6c-.4 0-.7.2-.7.5a1.23 1.23 0 0 0 .4.8c.7-.1 1-.3 1-.7z"/><path d="m139.2 128.2h9.1v2.1h-6.1v1h5v2.1h-5v3.1h-3z"/><path d="m151.8 128.2h3v6.2h5.7v2.1h-8.7z"/><path d="m173.1 129.1a4.14 4.14 0 0 1 1.2 3.3c0 3-1.7 4.4-5.4 4.4a6.2 6.2 0 0 1 -4.2-1.2 4.14 4.14 0 0 1 -1.2-3.3 4.07 4.07 0 0 1 1.2-3.2 6.2 6.2 0 0 1 4.2-1.2c2 .1 3.2.4 4.2 1.2zm-6.2 3.3q0 2.4 2.1 2.4c1.4 0 2.1-.8 2.1-2.3s-.7-2.3-2.1-2.3-2.1.7-2.1 2.2z"/><path d="m187.3 129.1a4.14 4.14 0 0 1 1.2 3.3c0 3-1.7 4.4-5.4 4.4a6.2 6.2 0 0 1 -4.2-1.2 4.14 4.14 0 0 1 -1.2-3.3 4.07 4.07 0 0 1 1.2-3.2 6.2 6.2 0 0 1 4.2-1.2 7 7 0 0 1 4.2 1.2zm-6.3 3.3q0 2.4 2.1 2.4c1.4 0 2.1-.8 2.1-2.3s-.7-2.3-2.1-2.3-2.1.7-2.1 2.2z"/><path d="m192.1 128.2h5.9c1.8 0 2.3.1 2.8.5a2.41 2.41 0 0 1 .8 1.9 2.31 2.31 0 0 1 -.5 1.6 2.21 2.21 0 0 1 -1.1.6c1.2.4 1.3.6 1.4 2.8a1.83 1.83 0 0 0 .2 1.1h-3.2a10 10 0 0 1 -.1-1.1c-.1-1.7-.2-1.9-1.5-1.9h-1.7v3h-3zm5.1 3.6a2 2 0 0 0 .9-.1.79.79 0 0 0 .3-.7c0-.6-.3-.8-1.1-.8h-2v1.6z"/><path d="m205.4 128.2h3v8.3h-3z"/><path d="m212.4 128.2h3.4l2.5 3.2a6.74 6.74 0 0 1 1.2 2.1h.1a6.78 6.78 0 0 1 -.4-2.6v-2.7h3v8.3h-3.3l-2.6-3.3a7.37 7.37 0 0 1 -1.1-2h-.1a5.81 5.81 0 0 1 .4 2.3v3h-3v-8.3z"/><path d="m236.7 136.5h-1.3l-.4-.9a3.06 3.06 0 0 1 -1.2.8 6.78 6.78 0 0 1 -2.6.4c-3.4 0-5.3-1.6-5.3-4.4a4.37 4.37 0 0 1 1.5-3.4 6.45 6.45 0 0 1 3.9-1.1 6.91 6.91 0 0 1 4.1 1.1 2.84 2.84 0 0 1 1.3 2.1h-3.6a1.66 1.66 0 0 0 -1.7-1.1 2 2 0 0 0 -2.12 1.89 1.88 1.88 0 0 0 0 .41 2.21 2.21 0 0 0 2 2.4 2.67 2.67 0 0 0 .4 0c1 0 1.6-.3 1.8-1h-1.3v-1.8h4.6v4.6z"/></g></svg>