<svg viewBox="0 0 263.2 158.76" xmlns="http://www.w3.org/2000/svg"><g fill="#bfd4de"><path d="m30.34 55.53 3.8-5.6c1.12-1.68 1.8-2.13 2.47-2.24a2 2 0 0 1 1.39.31c.78.56 1 1.23.56 2.46.9-.9 1.68-1.12 2.46-.45a2 2 0 0 1 .79 1.12c.11.67 0 1.57-1.23 3.36l-3.86 5.51zm2.57-.78 1.12.78 2.8-4a2.71 2.71 0 0 0 .56-1.23c0-.11-.11-.23-.22-.34s-.22-.11-.45-.11-.67.45-1 1zm6.38-1.46c.45-.56.68-1 .56-1.34s-.11-.34-.33-.45a.79.79 0 0 0 -.45-.11 2.87 2.87 0 0 0 -1.12 1l-2.69 4 1.24.91z"/><path d="m40.75 41.31 1.79-2 9.52 1.12-1.57 1.79-1.79-.22-4.48 5 .45 1.79-1.57 1.81zm3 3.81 2.91-3.36-4-.56z"/><path d="m58.22 30.34a2.85 2.85 0 0 1 -1.12 2.13l4.47-.68-2.35 2.13-4.36.56-2 1.79 1.68 1.9-1.54 1.46-5.26-5.82 4.82-4.36c1.67-1.46 2.46-1.8 3.24-1.8a2.51 2.51 0 0 1 1.68.9 2.48 2.48 0 0 1 .74 1.79zm-4.48.45-3.25 2.91 1.23 1.3 3.28-2.87c.78-.67 1.12-1.12 1.12-1.45a.82.82 0 0 0 -.22-.56c-.23-.23-.34-.34-.56-.34s-.71.22-1.6 1.01z"/><path d="m58 24.74 4.7-3.25c2.24-1.56 3.36-1.79 4.48-1.56a4 4 0 0 1 2.24 1.56 4.17 4.17 0 0 1 .78 2.69c-.22 1.12-.78 2.13-3 3.7l-4.7 3.24zm5.26 3.81 2.91-2c1.46-1 1.8-1.56 1.9-2.24a1.59 1.59 0 0 0 -.44-1.45 1.9 1.9 0 0 0 -1.24-.9c-.67-.11-1.34.11-2.8 1.12l-2.91 2z"/><path d="m70.19 17.47c.22-.9 1.12-1.8 3.36-2.92a15.06 15.06 0 0 1 4.45-1.67l.9 1.56a13.89 13.89 0 0 0 -4.56 1.56c-1.56.9-2.24 1.34-2.35 1.68v.32c.11.12.11.23.34.23s1.12-.23 2.8-1.12c2.57-1.34 3.8-1.68 4.59-1.46a2.44 2.44 0 0 1 1.12 1 2.32 2.32 0 0 1 .33 1.68c-.22.78-1 1.79-3.58 3.14a15.19 15.19 0 0 1 -5.15 1.79l-.9-1.57a15.36 15.36 0 0 0 5.15-1.69c1.46-.78 2.35-1.34 2.46-1.79a.4.4 0 0 0 -.11-.34c-.11-.11-.11-.22-.22-.22s-.56 0-2.8 1.12c-2.47 1.23-3.81 1.68-4.59 1.34a1.49 1.49 0 0 1 -1-1 2.76 2.76 0 0 1 -.24-1.64z"/><path d="m91.24 8.51-4.36 1.79 2.35 5.6-2 .9-2.35-5.6-4.39 1.8-.67-1.68 10.75-4.49z"/><path d="m93.48 7.16c.45-.9 1.57-1.9 4.7-2.8s4.48-.55 5.38 0a3.47 3.47 0 0 1 1.68 2.36 3.73 3.73 0 0 1 -.24 2.91c-.45.9-1.56 1.9-4.7 2.8s-4.48.56-5.37 0a3.58 3.58 0 0 1 -1.67-2.43 3.51 3.51 0 0 1 .22-2.84zm8.73-1.34c-.56-.33-1.56-.45-3.58.11s-2.79 1.23-3.13 1.79a2.35 2.35 0 0 0 -.12 1.8 2.16 2.16 0 0 0 1 1.45c.56.34 1.57.45 3.59-.11s2.8-1.23 3.13-1.79a2.28 2.28 0 0 0 .11-1.79 3.17 3.17 0 0 0 -1-1.46z"/><path d="m122 8.28-2.8.34-3.44-5.62-2 6.27-2.91.34-5-7.28 2.41-.33 3.92 6 2.12-6.61 2.47-.39 3.69 5.93 2.35-6.6 2.35-.33z"/><path d="m136.92 6.49.22-6 2 .11-.22 7.84-3.14-.12-6.13-6.42-.23 6.16-2-.11.23-7.84 3.25.11z"/><path d="m150.24 5 4.82-2.13 3 .56-6.27 2.69 4.81 4.92-3.13-.45-3.81-3.8-1.23-.23-.56 3-2.13-.45 1.46-7.73 2.13.45-.56 2.91z"/><path d="m168.72 10-.45 1.57-7.39-2.35-.45 1.23 7.62 2.35-.56 1.68-9.63-3 2.35-7.5 9.63 3-.56 1.68-7.62-2.35-.33 1.23z"/><path d="m178.79 17.69 2.46-5.49 1.9.9-3.25 7.17-2.8-1.27-3.24-8.18-2.58 5.6-1.9-.9 3.25-7.16 2.92 1.34z"/><path d="m194.47 21.72-4-2.46-3.14 5.15-1.79-1.12 3.14-5.15-4-2.47.9-1.56 10 6z"/><path d="m193.9 27.43a3 3 0 0 1 .79-2.35l2.68-3.47 1.68 1.39-2.46 3.25a2.16 2.16 0 0 0 -.56 1.45c0 .67.56 1.46 1.9 2.46s2.24 1.35 2.8 1.24a2.47 2.47 0 0 0 1.35-.9l2.46-3.25 1.68 1.34-2.69 3.41a3 3 0 0 1 -2.13 1.35c-1.12.11-2.46-.23-4.59-1.9s-2.81-2.9-2.91-4.02z"/><path d="m212.49 34a11.11 11.11 0 0 1 2.8 3.91l-1.29 1.39a10.91 10.91 0 0 0 -2.69-4 4.44 4.44 0 0 0 -2.8-1.57 2.14 2.14 0 0 0 -1.57.78 2.35 2.35 0 0 0 -.78 1.57 4.32 4.32 0 0 0 1.57 2.69 11.81 11.81 0 0 0 4 2.68l-1.35 1.35a11.24 11.24 0 0 1 -3.92-2.8c-1.9-1.9-2.46-3.36-2.46-4.36a4 4 0 0 1 1.23-2.69 3.67 3.67 0 0 1 2.69-1.34c1.21-.04 2.67.52 4.57 2.39z"/><path d="m217.53 44.33 5 1.46 1.9 2.35-6.5-1.9.56 6.94-2-2.46-.45-5.38-.78-1-2.35 1.9-1.35-1.67 6-4.93 1.44 1.67-2.35 1.9z"/><path d="m230.07 56.76 1.45 2.24-6.71-1.79-2.58 1.68-1.12-1.79 2.58-1.68 1.23-6.83 1.57 2.35-.79 4.59z"/></g><path d="m57.66 55.08h5.15v1.24h-3.36v.56h2.8v1.23h-2.8v.56h3.55v1.23h-5.34z" fill="#3f5866"/><path d="m67.17 58.44c.11.23.34.34.79.34s.67-.11.67-.34a.24.24 0 0 0 -.23-.22 4.21 4.21 0 0 0 -1.23-.11 2.82 2.82 0 0 1 -1.45-.34 1.2 1.2 0 0 1 -.9-1.23c0-1.12 1-1.68 2.91-1.68a3.51 3.51 0 0 1 2.13.45 1.6 1.6 0 0 1 .67 1.12h-2.24c-.11-.34-.33-.45-.78-.45s-.56.11-.56.34.11.22 1.57.44a4 4 0 0 1 1.48.34 1.19 1.19 0 0 1 .78 1.23c0 1.12-1 1.68-3 1.68a3.53 3.53 0 0 1 -2.13-.45 1.4 1.4 0 0 1 -.78-1.12z" fill="#3f5866"/><path d="m74.11 56.32h-1.68v-1.24h5.15v1.24h-1.79v3.58h-1.68z" fill="#3f5866"/><path d="m79.38 55.08h3c1.12 0 1.68.12 2.13.56a2.47 2.47 0 0 1 .67 1.9 2.85 2.85 0 0 1 -.56 1.79c-.45.45-.9.56-2.24.56h-3zm2.62 3.59a2.17 2.17 0 0 0 1-.12c.22-.11.33-.56.33-1a1.38 1.38 0 0 0 -.33-1 1.63 1.63 0 0 0 -1-.23h-.78v2.36z" fill="#3f5866"/><path d="m169.84 56.76a3.11 3.11 0 0 1 -.79.23v-1.12a2.52 2.52 0 0 0 1.23-.79h1.35v4.7h-1.79z" fill="#3f5866"/><path d="m177.34 58.44c.11.34.45.45.9.45a1.67 1.67 0 0 0 .78-.22.63.63 0 0 0 .22-.56 3.43 3.43 0 0 1 -1.23.22 5.67 5.67 0 0 1 -1.68-.22 1.33 1.33 0 0 1 -1-1.35 1.28 1.28 0 0 1 .67-1.23 4 4 0 0 1 2.12-.45 4.49 4.49 0 0 1 2.24.56 2.1 2.1 0 0 1 .9 1.9c0 1.68-1 2.47-2.91 2.47a3.9 3.9 0 0 1 -2.24-.56 1.56 1.56 0 0 1 -.56-1zm0-1.79c0 .34.33.45.9.45s.9-.11.9-.45-.34-.45-.9-.45-.9.11-.9.45z" fill="#3f5866"/><path d="m183.05 56.43a1.16 1.16 0 0 1 .56-1 6.57 6.57 0 0 1 2.24-.45 4.41 4.41 0 0 1 2.23.45 1 1 0 0 1 .56 1 .83.83 0 0 1 -.56.9 1.07 1.07 0 0 1 .68 1 1.39 1.39 0 0 1 -.56 1.12 4 4 0 0 1 -2.35.56 3.3 3.3 0 0 1 -2.36-.56 1.39 1.39 0 0 1 -.56-1.12 1 1 0 0 1 .68-1 .84.84 0 0 1 -.56-.9zm1.9 1.9c0 .33.22.44 1 .44s.9-.11.9-.44-.22-.45-.9-.45-1 .23-1 .45zm.11-1.9c0 .22.22.33.9.33s.9-.11.9-.33-.23-.34-.9-.34-.9.11-.9.34z" fill="#3f5866"/><path d="m191.33 59.9a2.9 2.9 0 0 1 .79-1.68 10 10 0 0 1 1.67-1.22 2 2 0 0 0 .68-.68h-3.7v-1.24h5.82c0 1.12-.22 1.57-1.45 2.69a3.84 3.84 0 0 0 -1.46 2.13z" fill="#3f5866"/><path d="m32.13 90.35a55.5 55.5 0 0 0 6 0c-.34 2.46-.9 11.31-1.12 14.89-2.24-.11-8.07-.11-10.42 0 0-5-1.45-7.61-4.81-7.61-3.7 0-5.71 1.68-5.71 11.86 0 10.53 2.46 12 5.6 12 2.91 0 5.26-2.12 4.93-7.72 2.35.11 9.06.11 11.41 0 .23 11.75-4.47 15.9-18.47 15.9-12.26-.02-19.54-4.84-19.54-20.18 0-13.49 7.5-20.26 18.7-20.26 4.92 0 8 1 10.63 2.69 1.9 1.08 2.58 1.08 2.8-1.57z" fill="#fff"/><path d="m39.41 109.72c0-14.33 8.06-20.15 20.82-20.15 13.77 0 20.82 5.37 20.82 20.15 0 15.11-9.06 20-20.82 20-13.43-.07-20.82-5.11-20.82-20zm25.59-.11c0-9.52-.56-12.43-4.7-12.43-3.91 0-4.81 2.91-4.81 12.43s.67 12.31 4.81 12.31c3.85 0 4.7-2.8 4.7-12.31z" fill="#fff"/><path d="m120.24 122.82c1 0 1.45-1.57.56-5a25.33 25.33 0 0 0 3-.11c1.57 6.71-.56 12.54-10.07 12.54-8 0-10-3.48-10.42-9.86-.33-6-1.9-7.5-5.48-7.72 0 2.46 0 4.59.11 5.48.11 2.36 1.23 3.36 3.13 3.36h1.12v7.39s-7.16-.11-11.2-.11-11.2.11-11.2.11v-7.39h1.21c1.79 0 2.58-.9 2.69-3.25s.11-15.11 0-17.24-.67-3.24-2.8-3.24h-1.18v-7.32c.9 0 9 .11 12.43.11h13.86c8.85 0 13.77 3.81 13.77 10.53 0 4.92-3.13 8.84-10.07 9.51 5.6.56 7.61 4.15 8.28 8.62.8 2.77 1.25 3.59 2.26 3.59zm-22.24-15.23h1.68c3.47 0 4.7-1.34 4.7-4.93 0-3-.56-5-3.36-5h-.67c-1.45 0-2.13.78-2.13 2.23a71.2 71.2 0 0 0 -.22 7.7z" fill="#fff"/><path d="m147.11 115.54c1-3 3.13-10.08 3.69-12.54.68-3.36.68-5.37-1.79-5.37h-1v-7.28s5.94.11 9.3.11 8.4-.11 9.29-.11v7.28h-1.34c-2.92 0-4.48.56-5.94 4.47s-5.93 18.36-8.17 27c-3.7-.11-11.87-.11-15.56 0-1.79-7.05-6.72-23.62-7.84-27s-2.35-4.47-5.37-4.47h-1.24v-7.28s8.18.11 12.77.11 11.75-.11 12.65-.11v7.28h-1c-2.13 0-2.8 1.34-1.9 5.26.43 3.02 2.55 9.74 3.45 12.65z" fill="#fff"/><path d="m163 121.47h1.12c2.24 0 2.57-1.34 2.68-3.24s.12-15.12 0-17.24-.9-3.25-2.91-3.25h-1v-7.28s7.06.11 11 .11 11-.11 11-.11v7.28h-1c-2 0-2.69 1.12-2.91 3.25s-.11 15.33 0 17.24.67 3.24 2.69 3.24h1.12v7.53s-7.06-.11-11-.11-11 .11-11 .11c.21-1.82.21-5.85.21-7.53z" fill="#fff"/><path d="m214.51 110.5v-8.5c-.12-3.24-1.68-4.36-3.7-4.36h-2.13v-7.29s5.83.11 9.07.11 9.07-.11 9.07-.11v7.28h-1c-2 0-3.47 1.23-3.69 4.36s-.11 17.69 0 26.87c-3.14-.11-9.85-.11-13 0-3.13-5.26-9.85-15.9-14.22-22.73v11.09c.11 2.46 1.23 4.36 3.81 4.36h2.28v7.42s-5.94-.11-9.29-.11-9.3.11-9.3.11v-7.39h1.12c2.58 0 3.59-1.9 3.81-4.36s.11-13.44 0-15.68a3.77 3.77 0 0 0 -3.74-3.8h-1.19v-7.31c4.7.11 14.78.11 19.48 0 2.65 4.59 8.7 14.33 12.62 20.04z" fill="#fff"/><path d="m237.9 99.31c0 1.67 1.34 2.12 7.5 2.35 9 .33 17.8 3 17.8 13.54 0 9.63-5.82 14.44-17.24 14.44a23.09 23.09 0 0 1 -11.31-2.46c-1.79-.9-2.8-.33-3.13 1.9a51.36 51.36 0 0 0 -5.82 0c.22-3.58.56-9.74.44-12.76a45.71 45.71 0 0 0 5.49 0c2 4.48 7.28 6.38 14.22 6.38 4.59 0 6.16-1.12 6.16-2.69s-2-2.12-8.74-2.46c-12-.56-16.9-5.37-16.9-13.43 0-8.51 5.6-14.45 16-14.45 5 0 8.06 1 10.52 2.35 2.35 1.12 2.35.45 2.8-1.45a42 42 0 0 0 5.26 0c-.11 2.91-.22 8-.11 11.31a43.6 43.6 0 0 0 -5.6 0c-1.68-3.47-5.82-4.93-10.63-4.93-5.25-.33-6.71 1.05-6.71 2.36z" fill="#fff"/><path d="m233.43 83.52a2.5 2.5 0 0 1 -2.43 1.34 2.81 2.81 0 0 1 -3-2.72 2.77 2.77 0 0 1 0-.41 3.24 3.24 0 0 1 3.09-3.38 4.18 4.18 0 0 1 .5 0c2.23 0 3.58 1.57 3.58 4.14 0 3.58-2.24 6.38-6.27 7.17l-.34-1c2.85-.66 4.53-2.34 4.87-5.14z" fill="#bfd4de"/><path d="m94.27 70.87 4.81-10.75 4.14.9.9-2.35 3-.45-.79-2.8 7-3 1.8 1.12 3.47-.78 3.47-1.8 2.57 1.12 3.81-5 .56-2.35 2-.68h2.24v-2.85l2.67-1.2 4.25 1.23 3.91 3.58 3.14-.11 4.59-1.23 3.92 5.26.56 5.49 4.47 3.47-7.38 8.4-7.95 3.25h-37.06l-2 1.56z" fill="#3f5866"/><path d="m45.45 144.2h15.34v3.58h-10.19v1.68h8.51v3.54h-8.51v5.27h-5.15z" fill="#3f5866"/><path d="m66.61 144.2h5.15v10.52h9.63v3.59h-14.78z" fill="#3f5866"/><path d="m102.66 145.77a6.92 6.92 0 0 1 2.13 5.48c0 5-2.91 7.5-9.07 7.5-3.36 0-5.48-.56-7.16-2-1.46-1.23-2.13-3-2.13-5.6 0-2.35.67-4.26 2.13-5.38 1.68-1.34 3.8-2 7-2s5.44.65 7.1 2zm-10.52 5.48c0 2.69 1.12 3.92 3.47 3.92s3.47-1.34 3.47-3.92-1.23-3.92-3.47-3.92-3.47 1.35-3.47 3.92z" fill="#3f5866"/><path d="m126.51 145.77a6.92 6.92 0 0 1 2.13 5.48c0 5-2.91 7.5-9.07 7.5-3.36 0-5.49-.56-7.17-2-1.45-1.23-2.12-3-2.12-5.6 0-2.35.67-4.26 2.12-5.38 1.68-1.34 3.81-2 7.06-2s5.37.65 7.05 2zm-10.51 5.48c0 2.69 1.12 3.92 3.47 3.92s3.47-1.34 3.47-3.92-1.23-3.92-3.47-3.92-3.47 1.35-3.47 3.92z" fill="#3f5866"/><path d="m134.68 144.2h10c3 0 3.91.22 4.81.9a4 4 0 0 1 1.23 3.13 4.51 4.51 0 0 1 -.78 2.69 3.35 3.35 0 0 1 -1.9.9c2 .56 2.24 1 2.35 4.59a3.34 3.34 0 0 0 .33 1.79h-5.37a8 8 0 0 1 -.11-1.9c-.11-2.91-.34-3.13-2.46-3.13h-2.92v5h-5.15zm8.62 6.05a3.16 3.16 0 0 0 1.46-.23 1.43 1.43 0 0 0 .56-1.23c0-1-.45-1.34-1.9-1.34h-3.42v2.8z" fill="#3f5866"/><path d="m157.07 144.2h5.15v14.11h-5.15z" fill="#3f5866"/><path d="m168.94 144.2h5.82l4.26 5.37a14.34 14.34 0 0 1 2 3.47h.11a12.66 12.66 0 0 1 -.67-4.36v-4.48h5.15v14.11h-5.61l-4.48-5.49a12.23 12.23 0 0 1 -1.9-3.47h-.11a10.65 10.65 0 0 1 .56 3.92v5h-5.15z" fill="#3f5866"/><path d="m209.92 158.31h-2.24l-.67-1.57a5.85 5.85 0 0 1 -2 1.34 12.86 12.86 0 0 1 -4.48.67c-5.71 0-8.84-2.68-8.84-7.39a6.67 6.67 0 0 1 2.57-5.71c1.57-1.23 3.81-1.79 6.61-1.79a12.27 12.27 0 0 1 6.94 1.79 5.42 5.42 0 0 1 2.24 3.59h-6.16a2.76 2.76 0 0 0 -2.91-1.79c-2.24 0-3.59 1.45-3.59 3.8 0 2.58 1.46 4 4.15 4 1.67 0 2.68-.56 3.13-1.68h-2.24v-3h7.73v7.73z" fill="#3f5866"/></svg>