<svg viewBox="0 0 144.13 44.05" xmlns="http://www.w3.org/2000/svg"><g transform="translate(0 .01)"><g fill="#fff"><path d="m17.6 6.56a30.46 30.46 0 0 0 3.31 0c-.18 1.35-.49 6.19-.61 8.15-1.23-.06-4.42-.06-5.7 0 0-2.76-.8-4.17-2.64-4.17-2 0-3.12.92-3.12 6.5 0 5.77 1.34 6.56 3.06 6.56s2.88-1.16 2.7-4.23c1.29.07 5 .07 6.25 0 .13 6.44-2.45 8.71-10.11 8.71-6.74 0-10.74-2.63-10.74-11.03.06-7.42 4.17-11.05 10.3-11.05a10.09 10.09 0 0 1 5.82 1.47c.98.53 1.35.53 1.48-.91z"/><path d="m21.58 17.17c0-7.85 4.41-11 11.4-11 7.54 0 11.4 2.94 11.4 11 0 8.27-5 11-11.4 11-7.35-.09-11.4-2.85-11.4-11zm14-.07c0-5.21-.31-6.8-2.58-6.8s-2.63 1.59-2.63 6.8.37 6.75 2.63 6.75c2.13.06 2.62-1.53 2.62-6.75z"/><path d="m65.84 24.4c.56 0 .8-.86.31-2.76a11.52 11.52 0 0 0 1.66-.06c.85 3.68-.31 6.87-5.52 6.87-4.35 0-5.46-1.9-5.7-5.4-.19-3.31-1-4.11-3-4.23 0 1.35 0 2.51.06 3 .06 1.28.67 1.84 1.72 1.84h.63v4s-3.93-.06-6.13-.06-6.13.06-6.13.06v-4h.67c1 0 1.41-.49 1.47-1.78s.06-8.28 0-9.44-.37-1.78-1.53-1.78h-.68v-4c.49 0 4.9.06 6.81.06h7.6c4.84 0 7.54 2.09 7.54 5.77 0 2.7-1.72 4.84-5.52 5.21 3.06.3 4.17 2.27 4.54 4.72.41 1.49.65 1.98 1.2 1.98zm-12.2-8.4h.92c1.9 0 2.58-.73 2.58-2.7 0-1.65-.31-2.76-1.84-2.76h-.37c-.8 0-1.16.43-1.16 1.23a39.85 39.85 0 0 0 -.13 4.23z"/><path d="m80.56 20.35c.55-1.65 1.72-5.51 2-6.86.37-1.84.37-3-1-3h-.55v-4s3.25.06 5.09.06 4.6-.06 5.09-.06v4h-.74c-1.59 0-2.45.31-3.25 2.46s-3.2 10.1-4.43 14.82c-2-.06-6.5-.06-8.53 0-.98-3.86-3.67-12.93-4.24-14.77s-1.33-2.46-3-2.46h-.68v-4s4.48.06 7 .06 6.44-.06 6.93-.06v4h-.55c-1.17 0-1.53.74-1 2.89a66.17 66.17 0 0 0 1.86 6.92z"/><path d="m89.26 23.6h.62c1.22 0 1.41-.73 1.47-1.78s.06-8.27 0-9.44-.49-1.77-1.6-1.77h-.55v-4s3.86.06 6 .06 6-.06 6-.06v4h-.55c-1.1 0-1.47.61-1.6 1.77s-.06 8.4 0 9.44.37 1.78 1.47 1.78h.62v4.11s-3.87-.06-6-.06-6 .06-6 .06c.12-.98.12-3.13.12-4.11z"/><path d="m117.47 17.6v-4.66c-.06-1.78-.92-2.39-2-2.39h-1.17v-4s3.19.06 5 .06 5-.06 5-.06v4h-.55c-1.1 0-1.9.68-2 2.4s-.06 9.68 0 14.71c-1.72-.06-5.4-.06-7.11 0-1.72-2.88-5.4-8.71-7.79-12.44v6.06c.06 1.35.68 2.4 2.09 2.4h1.22v4s-3.25-.06-5.09-.06-5.09.06-5.09.06v-4.02h.62c1.41 0 2-1 2.08-2.39s.06-7.36 0-8.58a2.07 2.07 0 0 0 -2-2.09h-.65v-4c2.57.06 8.09.06 10.67 0 1.3 2.53 4.62 7.87 6.77 11z"/><path d="m130.28 11.46c0 .92.73 1.17 4.11 1.29 4.9.19 9.74 1.66 9.74 7.42 0 5.27-3.18 7.91-9.44 7.91a12.79 12.79 0 0 1 -6.19-1.35c-1-.49-1.53-.18-1.72 1a28.11 28.11 0 0 0 -3.18 0c.12-2 .3-5.33.24-7a25 25 0 0 0 3 0c1.1 2.45 4 3.5 7.79 3.5 2.51 0 3.37-.62 3.37-1.47s-1.1-1.17-4.78-1.35c-6.56-.31-9.26-2.95-9.26-7.36 0-4.66 3.07-7.91 8.77-7.91a11.2 11.2 0 0 1 5.76 1.29c1.29.61 1.29.24 1.53-.8a23.06 23.06 0 0 0 2.88 0c-.06 1.59-.12 4.35-.06 6.19a26 26 0 0 0 -3.06 0c-.92-1.9-3.19-2.7-5.83-2.7-2.87-.12-3.67.61-3.67 1.34z"/><path d="m127.83 2.82a1.38 1.38 0 0 1 -1.35.74 1.56 1.56 0 0 1 -1.61-1.5 1.62 1.62 0 0 1 0-.22 1.78 1.78 0 0 1 1.7-1.84h.27c1.23 0 2 .86 2 2.27a3.89 3.89 0 0 1 -3.44 3.92l-.18-.55a3.13 3.13 0 0 0 2.61-2.82z"/></g><path d="m24.89 36.05h8.4v2h-5.58v.92h4.66v2h-4.66v2.88h-2.82z" fill="#3f5866"/><path d="m36.48 36.05h2.82v5.76h5.27v2h-8.09z" fill="#3f5866"/><path d="m56.22 36.9a3.76 3.76 0 0 1 1.16 3c0 2.76-1.59 4.11-5 4.11a5.6 5.6 0 0 1 -3.93-1.1 3.69 3.69 0 0 1 -1.16-3.06 3.52 3.52 0 0 1 1.17-3 5.84 5.84 0 0 1 3.86-1.1 5.73 5.73 0 0 1 3.9 1.15zm-5.76 3c0 1.48.61 2.15 1.9 2.15s1.9-.74 1.9-2.15-.68-2.14-1.9-2.14-1.9.8-1.9 2.15z" fill="#3f5866"/><path d="m69.28 36.9a3.8 3.8 0 0 1 1.16 3c0 2.76-1.59 4.11-5 4.11a5.59 5.59 0 0 1 -3.93-1.1 3.69 3.69 0 0 1 -1.16-3.06 3.55 3.55 0 0 1 1.16-3 5.88 5.88 0 0 1 3.87-1.1 5.74 5.74 0 0 1 3.9 1.15zm-5.76 3c0 1.48.61 2.15 1.9 2.15s1.9-.74 1.9-2.15-.68-2.14-1.9-2.14-1.9.8-1.9 2.15z" fill="#3f5866"/><path d="m73.75 36.05h5.46c1.65 0 2.15.12 2.63.49a2.22 2.22 0 0 1 .68 1.72 2.43 2.43 0 0 1 -.43 1.47 1.87 1.87 0 0 1 -1 .49c1.1.3 1.22.55 1.28 2.51a1.84 1.84 0 0 0 .19 1h-2.98a4 4 0 0 1 -.07-1c-.06-1.59-.18-1.72-1.34-1.72h-1.6v2.76h-2.82zm4.72 3.31a1.79 1.79 0 0 0 .8-.12.79.79 0 0 0 .31-.68c0-.55-.24-.73-1-.73h-1.9v1.53z" fill="#3f5866"/><path d="m86 36.05h2.82v7.72h-2.82z" fill="#3f5866"/><path d="m92.51 36.05h3.19l2.3 2.95a7.53 7.53 0 0 1 1.1 1.9h.06a7.19 7.19 0 0 1 -.37-2.39v-2.46h2.82v7.72h-3.03l-2.45-3a6.51 6.51 0 0 1 -1-1.9h-.13a5.81 5.81 0 0 1 .33 2.13v2.76h-2.82z" fill="#3f5866"/><path d="m115 43.77h-1.22l-.37-.85a3.12 3.12 0 0 1 -1.1.73 7 7 0 0 1 -2.45.37c-3.18-.02-4.86-1.47-4.86-4.02a3.64 3.64 0 0 1 1.41-3.12 5.76 5.76 0 0 1 3.62-1 6.68 6.68 0 0 1 3.8 1 3 3 0 0 1 1.23 2h-3.38a1.51 1.51 0 0 0 -1.59-1 1.87 1.87 0 0 0 -2 1.76 1.69 1.69 0 0 0 0 .32 2 2 0 0 0 1.81 2.22 2.37 2.37 0 0 0 .46 0c.92 0 1.47-.31 1.71-.92h-1.22v-1.72h4.23v4.23z" fill="#3f5866"/></g></svg>